Coordinates
version=1
nRows=11
nColumns=36
inDegrees=yes

Units are S.I. units (second, meters, Newtons, ...)
If the header above contains a line with 'inDegrees', this indicates whether rotational values are in degrees (yes) or radians (no).

endheader
time	pelvis_tilt	pelvis_list	pelvis_rotation	pelvis_tx	pelvis_ty	pelvis_tz	hip_flexion_r	hip_adduction_r	hip_rotation_r	knee_angle_r	knee_angle_r_beta	ankle_angle_r	subtalar_angle_r	mtp_angle_r	hip_flexion_l	hip_adduction_l	hip_rotation_l	knee_angle_l	knee_angle_l_beta	ankle_angle_l	subtalar_angle_l	mtp_angle_l	lumbar_extension	lumbar_bending	lumbar_rotation	arm_flex_r	arm_add_r	arm_rot_r	elbow_flex_r	pro_sup_r	arm_flex_l	arm_add_l	arm_rot_l	elbow_flex_l	pro_sup_l
      0.00000000	     -5.35716879	      7.75855972	    182.98747532	      0.76146426	      1.03840345	      0.85458898	     16.86864914	      7.05768623	     -3.69338215	     21.18486346	      0.36974562	     -1.17875263	     -8.63825662	     -8.42272952	     10.11473825	    -10.26602937	      3.87709815	     69.74499782	      1.21727985	     -3.47979544	    -13.18725788	     -8.42272952	    -22.27774698	      9.37781058	      0.84956729	     10.42216475	    -11.89754679	     -6.53061926	     18.04305830	     90.40901450	     19.03602346	    -10.46711918	      7.25213624	     26.00770445	     85.94478772
      0.01666670	     -5.97102759	      8.19811097	    182.31109341	      0.75694082	      1.03251697	      0.84927065	     15.66781916	      8.05328485	     -3.50033713	     22.04652524	      0.38478445	     -1.85795999	     -7.26795528	     -8.37118437	     12.31431318	    -10.92154304	      4.40593473	     73.69871439	      1.28628522	     -3.86359219	    -12.51130244	     -8.37118437	    -22.55517343	      8.83835915	      3.20336459	     10.32498507	    -12.07391610	     -6.37151659	     18.16397381	     90.26597741	     18.96129164	     -9.42821210	      6.62156026	     25.33327814	     85.81838679
      0.03333330	     -2.92609732	      8.66667631	    182.85160002	      0.74999403	      1.02919184	      0.84601502	     18.18942753	      8.58861723	     -3.75689803	     23.46933639	      0.40961719	     -2.95857078	     -8.02816126	     -8.33127000	     18.83335098	    -11.38434815	      5.98538504	     77.42547952	      1.35132954	     -3.24755653	    -10.61628019	     -8.33127000	    -18.31220772	      9.11447618	      3.26164037	     10.18411321	    -12.02713753	     -6.55478267	     17.53650027	     88.77241424	     16.94118790	     -8.92449803	      6.70351122	     23.69634616	     84.73764124
      0.05000000	     -0.78917199	      8.81403888	    183.06969915	      0.74796263	      1.03108840	      0.84526713	     19.73128288	      8.88110771	     -2.85133914	     24.74065451	      0.43180588	     -2.77265115	     -9.24300714	     -8.05789194	     24.26227397	    -11.32957769	      6.77629449	     79.25021929	      1.38317726	     -2.68442259	     -9.53365550	     -8.05789194	    -15.21551016	      9.12161639	      3.40693572	     10.75008466	    -12.09374464	     -8.18919294	     17.09281595	     94.67096392	     15.21625224	     -8.39607042	      5.37390570	     21.89115069	     91.95502613
      0.06666670	      0.40742519	      8.86383096	    183.72123642	      0.75008158	      1.03605752	      0.84650616	     20.16041315	      9.01306662	     -2.26867875	     25.30516791	      0.44165850	     -2.94279366	    -10.42332554	     -8.02998091	     28.32408606	    -10.71213608	      7.64818104	     78.76051966	      1.37463039	     -2.45705186	     -8.56821209	     -8.02998091	    -13.46876332	      9.01781317	      3.50659535	     11.71350661	    -12.41578306	     -8.01165244	     17.11948960	     93.68706865	     14.23734131	     -7.96510092	      5.60182359	     20.07480170	     91.02721418
      0.08333330	      0.63068782	      8.52428702	    184.55488545	      0.75317080	      1.04453667	      0.84801330	     19.45170582	      8.68905312	     -2.46475354	     25.12844452	      0.43857409	     -3.53025662	    -11.08927323	     -7.99602220	     30.73340808	     -9.70952539	      7.99310039	     76.25153341	      1.33084032	     -3.13130956	     -8.16066695	     -7.99602220	    -13.36137658	      8.54772535	      3.67378527	     12.90899675	    -12.74817354	     -8.03597549	     18.05051538	     93.03476470	     13.50487704	     -7.62204555	      5.33502162	     18.99998826	     90.51295800
      0.10000000	      1.06820629	      8.10704274	    185.07705987	      0.75709680	      1.05449868	      0.84739969	     18.96269812	      8.27079816	     -2.86493177	     24.55726720	      0.42860517	     -4.49929444	    -11.68226544	     -7.98367685	     32.65577957	     -8.92965593	      7.72102351	     72.31315828	      1.26210270	     -5.13777036	     -8.44800831	     -7.98367685	    -13.29380441	      7.96726071	      4.23733705	     13.89007373	    -13.17656520	     -7.88595758	     19.46644141	     92.48803443	     12.73569849	     -7.17833560	      4.64842088	     17.76546818	     89.96149098
      0.11666670	      1.14781677	      7.76940097	    185.46650730	      0.76367592	      1.06425766	      0.84369596	     18.14499514	      7.99096486	     -3.27250147	     23.92724036	      0.41760913	     -5.53703418	    -12.44179140	     -7.94186994	     33.65801100	     -8.59534645	      7.09735071	     67.32187662	      1.17498841	     -8.02446554	     -9.19681471	     -7.94186994	    -13.92420912	      7.45776094	      5.00436032	     15.14580283	    -13.60529759	     -8.08666878	     20.85598975	     92.44883208	     11.94072325	     -6.87503770	      3.73350550	     17.04372513	     89.93724850
      0.13333330	      1.27476422	      7.79009985	    185.61645434	      0.77187939	      1.07195364	      0.83843645	     17.50126765	      8.16633424	     -3.45834397	     23.46054314	      0.40946372	     -6.47433808	    -13.37671680	     -7.94813716	     34.34143281	     -8.93520770	      6.13754313	     61.50426883	      1.07345200	    -11.13437333	     -9.81624352	     -7.94813716	    -14.71758656	      7.32154928	      6.01725086	     16.71205337	    -14.15907874	     -8.43157412	     22.12976269	     92.96185493	     11.40995738	     -6.59491401	      2.36068644	     16.43771027	     90.35903721
      0.15000000	      1.26153482	      8.10041705	    185.61530345	      0.77830443	      1.07578725	      0.83430889	     16.78550976	      8.71516951	     -3.69545937	     23.17016807	      0.40439572	     -7.00771666	    -14.25201323	     -7.92008601	     34.49834851	     -9.66543699	      4.90668175	     55.24788047	      0.96425742	    -13.89341573	    -10.18957577	     -7.92008601	    -15.66494482	      7.52355579	      7.35267473	     18.31359445	    -14.93010263	     -8.39788485	     23.28344833	     92.93666367	     11.28144463	     -6.32202053	      1.51428931	     15.78084768	     90.37551914
      0.16666670	      1.09954127	      8.67702355	    185.38384531	      0.78064457	      1.07628635	      0.83258697	     15.87267317	      9.63885256	     -3.84174487	     22.91210918	      0.39989174	     -7.28229554	    -15.15132990	     -7.89672950	     34.29106300	    -10.54872154	      3.72778176	     49.35646816	      0.86143288	    -15.81174829	    -10.21844269	     -7.89672950	    -16.57706455	      8.05427519	      9.03748171	     19.57614174	    -15.97460262	     -7.83677289	     24.69463905	     92.33382876	     11.39287153	     -5.92897410	      1.28608480	     14.92997998	     89.64783992
